<svg width="34" height="35" viewBox="0 0 34 35" fill="none" xmlns="http://www.w3.org/2000/svg">
<ellipse cx="17" cy="17.5" rx="17" ry="17.5" fill="#272727"/>
<g clip-path="url(#clip0_571_89)">
<path d="M14.5 25C15.88 25 17 23.88 17 22.5V20H14.5C13.12 20 12 21.12 12 22.5C12 23.88 13.12 25 14.5 25Z" fill="#0ACF83"/>
<path d="M12 17.5C12 16.12 13.12 15 14.5 15H17V20H14.5C13.12 20 12 18.88 12 17.5Z" fill="#A259FF"/>
<path d="M12 12.5C12 11.12 13.12 10 14.5 10H17V15H14.5C13.12 15 12 13.88 12 12.5Z" fill="#F24E1E"/>
<path d="M17 10H19.5C20.88 10 22 11.12 22 12.5C22 13.88 20.88 15 19.5 15H17V10Z" fill="#FF7262"/>
<path d="M22 17.5C22 18.88 20.88 20 19.5 20C18.12 20 17 18.88 17 17.5C17 16.12 18.12 15 19.5 15C20.88 15 22 16.12 22 17.5Z" fill="#1ABCFE"/>
</g>
<defs>
<clipPath id="clip0_571_89">
<rect width="10" height="15" fill="white" transform="translate(12 10)"/>
</clipPath>
</defs>
</svg>
