<svg width="34" height="35" viewBox="0 0 34 35" fill="none" xmlns="http://www.w3.org/2000/svg">
<ellipse cx="17" cy="17.5" rx="17" ry="17.5" fill="#272727"/>
<g clip-path="url(#clip0_571_381)">
<path d="M11.1878 8C13.5006 8 15.3756 9.87438 15.3756 12.1867C15.3756 14.4594 13.564 16.3078 11.3059 16.3705C11.3059 16.5628 11.3144 16.9261 11.4231 17.1455C11.5741 17.4497 12.4798 18.0162 13.3678 18.0162H13.6869C13.8874 16.5887 15.1132 15.4902 16.5963 15.4902C18.0733 15.4902 19.2955 16.5798 19.5034 17.9988H21.1541C21.362 16.5798 22.5841 15.4902 24.0612 15.4902C25.6842 15.4902 27 16.8056 27 18.4283C27 20.0509 25.6842 21.3663 24.0612 21.3663C22.5841 21.3663 21.362 20.2766 21.1541 18.8577H19.5034C19.2956 20.2766 18.0734 21.3663 16.5963 21.3663C15.122 21.3663 13.9014 20.2809 13.6901 18.8657L13.3373 18.8763C12.7565 18.8719 12.1428 18.7167 11.65 18.3819C11.5156 18.2905 11.3832 18.1946 11.2452 18.1038V18.2945C11.2444 18.3562 11.2332 19.2833 11.2323 20.3127V20.5306C11.2327 21.2057 11.238 21.9013 11.254 22.4088C11.2888 23.5217 12.1941 24.4201 13.1932 24.6303C13.3231 24.6577 13.5463 24.6611 13.687 24.6489C13.8879 23.222 15.1136 22.1239 16.5963 22.1239C18.2192 22.1239 19.535 23.4394 19.535 25.062C19.535 26.6846 18.2192 28 16.5963 28C15.1299 28 13.9148 26.9263 13.6937 25.5223H13.4395C11.5304 25.4181 10.3435 23.6672 10.3642 22.2471C10.3903 20.4598 10.3706 18.6718 10.3704 16.8841V16.2931C8.44891 15.913 7 14.2192 7 12.1868C7 9.87437 8.87492 8 11.1878 8ZM16.5963 22.9828C15.4477 22.9828 14.5166 23.9137 14.5166 25.062C14.5166 26.2103 15.4477 27.1412 16.5963 27.1412C17.7448 27.1412 18.6759 26.2103 18.6759 25.062C18.6759 23.9137 17.7448 22.9827 16.5963 22.9827V22.9828ZM16.5963 16.3491C15.4477 16.3491 14.5166 17.2799 14.5166 18.4283C14.5166 19.5765 15.4477 20.5074 16.5963 20.5074C17.7448 20.5074 18.6759 19.5765 18.6759 18.4283C18.6759 17.2799 17.7448 16.3491 16.5963 16.3491ZM24.0612 16.3491C22.9126 16.3491 21.9815 17.2799 21.9815 18.4283C21.9815 19.5765 22.9126 20.5074 24.0612 20.5074C25.2098 20.5074 26.1409 19.5765 26.1409 18.4283C26.1409 17.2799 25.2098 16.3491 24.0613 16.3491H24.0612ZM25.2456 17.5528C25.3241 17.631 25.3692 17.7365 25.3717 17.8473C25.3742 17.958 25.3338 18.0654 25.2589 18.147L25.2464 18.1602L23.9722 19.4371C23.8943 19.5151 23.7895 19.5602 23.6793 19.5631C23.5692 19.566 23.4621 19.5264 23.3803 19.4526L23.3669 19.4398L22.743 18.8258C22.7029 18.7862 22.6709 18.7391 22.6489 18.6872C22.6269 18.6353 22.6154 18.5795 22.6149 18.5231C22.6145 18.4667 22.6252 18.4108 22.6463 18.3585C22.6675 18.3063 22.6988 18.2587 22.7384 18.2185C22.8161 18.1396 22.9213 18.0938 23.032 18.0906C23.1427 18.0873 23.2504 18.127 23.3326 18.2013L23.3457 18.2138L23.6654 18.5284L24.6382 17.5537C24.7187 17.473 24.8278 17.4276 24.9418 17.4275C25.0557 17.4273 25.165 17.4724 25.2456 17.5529V17.5528ZM17.7464 17.5466C17.8248 17.6248 17.87 17.7303 17.8725 17.841C17.8749 17.9517 17.8345 18.0591 17.7597 18.1408L17.7472 18.1539L16.473 19.4308C16.3951 19.5088 16.2903 19.5539 16.1801 19.5568C16.07 19.5596 15.9629 19.5201 15.8811 19.4462L15.8677 19.4335L15.2438 18.8195C15.1648 18.7404 15.1196 18.6337 15.118 18.5219C15.1164 18.4101 15.1584 18.3021 15.2352 18.2208C15.3119 18.1395 15.4173 18.0913 15.529 18.0865C15.6407 18.0817 15.7499 18.1207 15.8334 18.1951L15.8465 18.2076L16.1663 18.5222L17.139 17.5473C17.2194 17.4667 17.3286 17.4213 17.4425 17.4212C17.5564 17.421 17.6657 17.4661 17.7464 17.5466ZM11.1878 8.85883C9.34938 8.85883 7.85906 10.3487 7.85906 12.1868C7.85906 14.0247 9.34938 15.5147 11.1878 15.5147C13.0262 15.5147 14.5166 14.0247 14.5166 12.1868C14.5166 10.3487 13.0262 8.85883 11.1878 8.85883ZM10.8415 10.1977C11.5414 10.6182 12.2325 11.0535 12.9141 11.5032C13.485 11.8798 13.4836 12.5628 12.9062 12.9402C12.2131 13.3938 11.5082 13.8291 10.7923 14.2459C10.2099 14.5849 9.55797 14.1951 9.54219 13.5159C9.53203 13.0782 9.54031 12.6401 9.53969 12.202C9.53922 11.7759 9.53086 11.3496 9.54117 10.9237C9.55852 10.2012 10.2237 9.82477 10.8414 10.1977H10.8415ZM10.3798 10.8908V11.193L10.3797 11.6363L10.3796 11.9261V12.3544C10.3796 12.6848 10.3798 13.0102 10.3804 13.3354C10.3806 13.4885 10.4603 13.4823 10.5634 13.4184C11.1576 13.0502 11.752 12.6823 12.3468 12.3148C12.4451 12.2541 12.4479 12.1908 12.3515 12.13C11.7145 11.7285 11.0766 11.3284 10.3798 10.8908Z" fill="white"/>
<path d="M17.4088 25.4907C17.4652 25.4907 17.5211 25.4796 17.5732 25.4581C17.6253 25.4365 17.6727 25.4048 17.7126 25.365C17.7525 25.3251 17.7841 25.2777 17.8057 25.2256C17.8273 25.1735 17.8384 25.1177 17.8384 25.0613C17.8384 25.0048 17.8273 24.949 17.8057 24.8969C17.7841 24.8448 17.7525 24.7974 17.7126 24.7575C17.6727 24.7176 17.6254 24.686 17.5733 24.6644C17.5212 24.6428 17.4653 24.6317 17.4089 24.6317C17.295 24.6317 17.1858 24.6769 17.1052 24.7575C17.0247 24.838 16.9794 24.9473 16.9794 25.0612C16.9794 25.1751 17.0247 25.2843 17.1052 25.3649C17.1858 25.4454 17.295 25.4907 17.4089 25.4907M15.7645 25.4907C15.8784 25.4907 15.9876 25.4455 16.0682 25.3649C16.1487 25.2844 16.194 25.1751 16.194 25.0612C16.194 24.9473 16.1487 24.838 16.0682 24.7575C15.9876 24.6769 15.8784 24.6317 15.7645 24.6317C15.6505 24.6317 15.5413 24.6769 15.4608 24.7575C15.3802 24.838 15.335 24.9473 15.335 25.0612C15.335 25.1751 15.3802 25.2843 15.4608 25.3649C15.5413 25.4454 15.6505 25.4907 15.7645 25.4907M24.0617 27.1413C22.9131 27.1413 21.982 26.2104 21.982 25.0621C21.982 23.9138 22.9131 22.9829 24.0617 22.9829C25.2102 22.9829 26.1414 23.9138 26.1414 25.0621C26.1414 26.2104 25.2102 27.1413 24.0617 27.1413ZM24.0617 22.1241C22.5847 22.1241 21.3625 23.2137 21.1546 24.6327H20.6739C20.4641 24.6327 20.2939 24.825 20.2939 25.0621C20.2939 25.2993 20.4641 25.4915 20.6739 25.4915H21.1546C21.3624 26.9105 22.5847 28.0001 24.0616 28.0001C25.6848 28.0001 27.0005 26.6846 27.0005 25.0621C27.0005 23.4394 25.6847 22.124 24.0617 22.124" fill="white"/>
</g>
<defs>
<clipPath id="clip0_571_381">
<rect width="20" height="20" fill="white" transform="translate(7 8)"/>
</clipPath>
</defs>
</svg>
