<svg width="20" height="20" viewBox="0 0 20 20" fill="none" xmlns="http://www.w3.org/2000/svg">
<path d="M1.25 1.25H18.75V18.75H1.25V1.25Z" fill="#D9F431"/>
<path d="M13.0055 14.9218C13.1547 15.2246 13.3863 15.4792 13.6738 15.6561C13.9613 15.8331 14.293 15.9251 14.6305 15.9218C15.3118 15.9218 15.7474 15.5811 15.7474 15.1093C15.7474 14.5468 15.2999 14.3455 14.5499 14.0174L14.1387 13.8411C12.9512 13.3355 12.1637 12.7024 12.1637 11.3636C12.1637 10.1305 13.1012 9.19113 14.5718 9.19113C15.0479 9.15675 15.5235 9.2633 15.9394 9.49748C16.3553 9.73167 16.6931 10.0831 16.9105 10.508L15.6249 11.3299C15.5412 11.1192 15.3954 10.939 15.2069 10.8131C15.0183 10.6871 14.796 10.6215 14.5693 10.6249C14.4704 10.615 14.3705 10.6258 14.276 10.6566C14.1815 10.6875 14.0945 10.7376 14.0205 10.804C13.9465 10.8703 13.887 10.9513 13.8461 11.0418C13.8051 11.1324 13.7834 11.2305 13.7824 11.3299C13.7824 11.823 14.088 12.023 14.7937 12.3299L15.2049 12.5061C16.6024 13.1055 17.3924 13.7161 17.3924 15.0893C17.3924 16.5699 16.2293 17.3811 14.6674 17.3811C14.0589 17.4199 13.4521 17.2817 12.9203 16.9833C12.3885 16.6849 11.9545 16.2389 11.6705 15.6993L13.0055 14.9218ZM7.19617 15.0643C7.4543 15.5224 7.6893 15.9099 8.2543 15.9099C8.7943 15.9099 9.13555 15.6986 9.13555 14.8768V9.28488H10.7799V14.8986C10.7799 16.6011 9.77992 17.3761 8.3243 17.3761C7.80977 17.4043 7.29877 17.276 6.85848 17.0083C6.41818 16.7406 6.06921 16.3459 5.85742 15.8761L7.19617 15.0643Z" fill="#120F1A"/>
</svg>
