<svg width="16" height="17" viewBox="0 0 16 17" fill="none" xmlns="http://www.w3.org/2000/svg">
<path d="M14.9306 8.36621C14.9306 7.93424 14.759 7.51996 14.4536 7.21451C14.1481 6.90906 13.7339 6.73746 13.3019 6.73746C13.2447 6.7374 13.1875 6.74032 13.1306 6.74621L15.3681 0.147461H5.86001L8.09439 6.74059C8.06189 6.74059 8.02876 6.73746 7.99564 6.73746C7.60669 6.73702 7.23042 6.87577 6.93489 7.12863C6.63936 7.38149 6.44407 7.73177 6.38434 8.1161C6.32461 8.50043 6.40439 8.89345 6.60925 9.22408C6.81411 9.5547 7.13052 9.8011 7.50126 9.91871C7.15479 10.5153 6.7234 11.0582 6.22064 11.5306C5.56618 12.1562 4.78864 12.6387 3.93751 12.9475C3.46064 12.7215 3.08768 12.3224 2.8944 11.8314C2.70112 11.3403 2.70201 10.7941 2.89689 10.3037C2.94501 10.1912 2.99376 10.0775 3.04001 9.96371C3.40317 9.87818 3.72598 9.67062 3.95449 9.3757C4.183 9.08078 4.30338 8.71636 4.29551 8.34336C4.28764 7.97035 4.152 7.61133 3.91125 7.32631C3.6705 7.04129 3.33923 6.84753 2.97278 6.7774C2.60634 6.70726 2.22693 6.76501 1.89795 6.94099C1.56897 7.11698 1.31035 7.40053 1.1653 7.74427C1.02025 8.08801 0.997568 8.47112 1.10103 8.82958C1.2045 9.18804 1.42785 9.50013 1.73376 9.71371C1.21386 10.6564 0.81708 11.6619 0.553137 12.7056C0.331887 14.04 0.553137 15.4556 1.70626 16.2562C4.39376 18.1193 7.31189 15.1012 10.3881 14.3431C11.5031 14.0681 12.7269 14.1125 13.7088 13.5437C14.0635 13.3417 14.3694 13.064 14.6048 12.7305C14.8401 12.3969 14.9992 12.0156 15.0706 11.6137C15.136 11.2307 15.1237 10.8385 15.0344 10.4604C14.9452 10.0822 14.7809 9.72586 14.5513 9.41246C14.7963 9.11964 14.9304 8.7499 14.93 8.36809L14.9306 8.36621ZM9.62501 8.37496V8.36934C9.62548 8.08905 9.55343 7.8134 9.41588 7.56918C9.27833 7.32496 9.07995 7.12047 8.84001 6.97559L10.6175 3.37496L12.3988 7.00871C12.1753 7.15721 11.9921 7.35872 11.8655 7.59527C11.7388 7.83182 11.6728 8.09603 11.6731 8.36434V8.39996L9.62501 8.37496Z" fill="#C63D14"/>
</svg>
