<svg width="18" height="18" viewBox="0 0 18 18" fill="none" xmlns="http://www.w3.org/2000/svg">
<path d="M8.7141 7.42503C9.54791 7.42503 10.2279 8.12503 10.2279 9.00003C10.2279 9.83337 9.54791 10.5417 8.7141 10.5417C7.88029 10.5417 7.20029 9.83337 7.20029 9.00003C7.20029 8.12503 7.88029 7.42503 8.7141 7.42503ZM4.966 15.6667C5.476 15.9834 6.59315 15.5 7.88029 14.25C7.45934 13.7584 7.04648 13.225 6.65791 12.6667C6.00556 12.6024 5.35701 12.5023 4.71505 12.3667C4.3022 14.15 4.456 15.375 4.966 15.6667ZM5.54077 10.8834L5.306 10.4584C5.21696 10.7 5.12791 10.9417 5.07124 11.175C5.28981 11.225 5.53267 11.2667 5.78362 11.3084L5.54077 10.8834ZM10.8351 10.25L11.4908 9.00003L10.8351 7.75003C10.5922 7.30837 10.3331 6.9167 10.0984 6.52503C9.66124 6.50003 9.19981 6.50003 8.7141 6.50003C8.22839 6.50003 7.76696 6.50003 7.32981 6.52503C7.09505 6.9167 6.836 7.30837 6.59315 7.75003L5.93743 9.00003L6.59315 10.25C6.836 10.6917 7.09505 11.0834 7.32981 11.475C7.76696 11.5 8.22839 11.5 8.7141 11.5C9.19981 11.5 9.66124 11.5 10.0984 11.475C10.3331 11.0834 10.5922 10.6917 10.8351 10.25ZM8.7141 4.65003C8.56029 4.83337 8.39839 5.02503 8.23648 5.25003H9.19172C9.02981 5.02503 8.86791 4.83337 8.7141 4.65003ZM8.7141 13.35C8.86791 13.1667 9.02981 12.975 9.19172 12.75H8.23648C8.39839 12.975 8.56029 13.1667 8.7141 13.35ZM12.4541 2.33337C11.9522 2.0167 10.8351 2.50003 9.54791 3.75003C9.96886 4.2417 10.3817 4.77503 10.7703 5.33337C11.4341 5.40003 12.0898 5.50003 12.7131 5.63337C13.126 3.85003 12.9722 2.62503 12.4541 2.33337ZM11.8874 7.1167L12.1222 7.5417C12.2112 7.30003 12.3003 7.05837 12.357 6.82503C12.1384 6.77503 11.8955 6.73337 11.6446 6.6917L11.8874 7.1167ZM13.0612 1.2417C14.2512 1.9417 14.3808 3.78337 13.8789 5.93337C15.9351 6.55837 17.4165 7.5917 17.4165 9.00003C17.4165 10.4084 15.9351 11.4417 13.8789 12.0667C14.3808 14.2167 14.2512 16.0584 13.0612 16.7584C11.8793 17.4584 10.2684 16.6584 8.7141 15.1334C7.15981 16.6584 5.54886 17.4584 4.35886 16.7584C3.17696 16.0584 3.04743 14.2167 3.54934 12.0667C1.49315 11.4417 0.0117188 10.4084 0.0117188 9.00003C0.0117188 7.5917 1.49315 6.55837 3.54934 5.93337C3.04743 3.78337 3.17696 1.9417 4.35886 1.2417C5.54886 0.541701 7.15981 1.3417 8.7141 2.8667C10.2684 1.3417 11.8793 0.541701 13.0612 1.2417ZM12.8265 9.00003C13.1017 9.62503 13.3446 10.25 13.547 10.8834C15.247 10.3584 16.2022 9.60837 16.2022 9.00003C16.2022 8.3917 15.247 7.6417 13.547 7.1167C13.3446 7.75003 13.1017 8.37503 12.8265 9.00003ZM4.60172 9.00003C4.32648 8.37503 4.08362 7.75003 3.88124 7.1167C2.18124 7.6417 1.226 8.3917 1.226 9.00003C1.226 9.60837 2.18124 10.3584 3.88124 10.8834C4.08362 10.25 4.32648 9.62503 4.60172 9.00003ZM11.8874 10.8834L11.6446 11.3084C11.8955 11.2667 12.1384 11.225 12.357 11.175C12.3003 10.9417 12.2112 10.7 12.1222 10.4584L11.8874 10.8834ZM9.54791 14.25C10.8351 15.5 11.9522 15.9834 12.4541 15.6667C12.9722 15.375 13.126 14.15 12.7131 12.3667C12.0898 12.5 11.4341 12.6 10.7703 12.6667C10.3817 13.225 9.96886 13.7584 9.54791 14.25ZM5.54077 7.1167L5.78362 6.6917C5.53267 6.73337 5.28981 6.77503 5.07124 6.82503C5.12791 7.05837 5.21696 7.30003 5.306 7.5417L5.54077 7.1167ZM7.88029 3.75003C6.59315 2.50003 5.476 2.0167 4.966 2.33337C4.456 2.62503 4.3022 3.85003 4.71505 5.63337C5.35701 5.49778 6.00556 5.39763 6.65791 5.33337C7.04648 4.77503 7.45934 4.2417 7.88029 3.75003Z" fill="#B292FF"/>
</svg>
