<svg width="16" height="16" viewBox="0 0 16 16" fill="none" xmlns="http://www.w3.org/2000/svg">
<path d="M0.5 0.5H15.5V15.5H0.5V0.5ZM9.425 12.8833C9.84167 13.7 10.6833 14.325 12 14.325C13.3333 14.325 14.3333 13.6333 14.3333 12.3583C14.3333 11.1833 13.6583 10.6583 12.4583 10.1417L12.1083 9.99167C11.5 9.73333 11.2417 9.55833 11.2417 9.14167C11.2417 8.8 11.5 8.53333 11.9167 8.53333C12.3167 8.53333 12.5833 8.70833 12.825 9.14167L13.9167 8.41667C13.4583 7.61667 12.8083 7.30833 11.9167 7.30833C10.6583 7.30833 9.85 8.10833 9.85 9.16667C9.85 10.3167 10.525 10.8583 11.5417 11.2917L11.8917 11.4417C12.5417 11.725 12.925 11.9 12.925 12.3833C12.925 12.7833 12.55 13.075 11.9667 13.075C11.275 13.075 10.875 12.7167 10.575 12.2167L9.425 12.8833ZM8.83333 7.375H4.66667V8.625H5.91667V14.6667H7.375V8.625H8.83333V7.375Z" fill="#2F74FB"/>
</svg>
